<?xml version="1.0" encoding="UTF-8" standalone="no"?>
<!-- Created with Inkscape (http://www.inkscape.org/) -->

<svg
   width="52.532822mm"
   height="52.80275mm"
   viewBox="0 0 52.532822 52.802749"
   version="1.1"
   id="svg849"
   xmlns="http://www.w3.org/2000/svg"
   xmlns:svg="http://www.w3.org/2000/svg">
  <defs
     id="defs846">
    <marker
       id="DistanceX"
       orient="auto"
       refX="0"
       refY="0"
       style="overflow:visible">
      <path
         d="M 3,-3 -3,3 M 0,-5 V 5"
         style="stroke:#000000;stroke-width:0.5"
         id="path826" />
    </marker>
    <pattern
       id="Hatch"
       patternUnits="userSpaceOnUse"
       width="8"
       height="8"
       x="0"
       y="0">
      <path
         d="M8 4 l-4,4"
         stroke="#000000"
         stroke-width="0.25"
         linecap="square"
         id="path829" />
      <path
         d="M6 2 l-4,4"
         stroke="#000000"
         stroke-width="0.25"
         linecap="square"
         id="path831" />
      <path
         d="M4 0 l-4,4"
         stroke="#000000"
         stroke-width="0.25"
         linecap="square"
         id="path833" />
    </pattern>
    <symbol
       id="*Model_Space" />
    <symbol
       id="*Paper_Space" />
    <marker
       id="DistanceX-6"
       orient="auto"
       refX="0"
       refY="0"
       style="overflow:visible">
      <path
         d="M 3,-3 -3,3 M 0,-5 V 5"
         style="stroke:#000000;stroke-width:0.5"
         id="path1064" />
    </marker>
    <pattern
       id="Hatch-7"
       patternUnits="userSpaceOnUse"
       width="8"
       height="8"
       x="0"
       y="0">
      <path
         d="M8 4 l-4,4"
         stroke="#000000"
         stroke-width="0.25"
         linecap="square"
         id="path1067" />
      <path
         d="M6 2 l-4,4"
         stroke="#000000"
         stroke-width="0.25"
         linecap="square"
         id="path1069" />
      <path
         d="M4 0 l-4,4"
         stroke="#000000"
         stroke-width="0.25"
         linecap="square"
         id="path1071" />
    </pattern>
    <symbol
       id="*Model_Space-5" />
    <symbol
       id="*Paper_Space-3" />
  </defs>
  <g
     id="layer1"
     transform="translate(-22.910061,-74.863326)">
    <g
       id="g1098"
       style="stroke-width:0.0377953;stroke-miterlimit:4;stroke-dasharray:none"
       transform="matrix(0.26458333,0,0,0.26458333,49.41507,-195.71847)">
      <path
         d="m 22.677165,1122.5197 -0.02951,-1.167 -0.08757,-1.1516 -0.144212,-1.1349 -0.199427,-1.1167 -0.253218,-1.0972 -0.305583,-1.0761 -0.356524,-1.0537 -0.40604,-1.0298 -0.454131,-1.0045 -0.500796,-0.9778 -0.546038,-0.9496 -0.589855,-0.9201 -0.632246,-0.8891 -0.673212,-0.8567 -0.712755,-0.8228 -0.750871,-0.7876 -0.787564,-0.7508 -0.82283,-0.7128 -0.856674,-0.6732 -0.889091,-0.6323 -0.920083,-0.5898 -0.949652,-0.546 -0.9777943,-0.5008 -1.0045128,-0.4542 -1.0298062,-0.406 -1.0536746,-0.3565 -1.0761183,-0.3056 -1.0971372,-0.2532 -1.1167311,-0.1995 -1.1349002,-0.1442 -1.1516444,-0.087 L 0,1099.8425 l -1.1669639,0.03 -1.1516444,0.087 -1.1349002,0.1442 -1.1167311,0.1995 -1.0971372,0.2532 -1.0761183,0.3056 -1.0536746,0.3565 -1.0298062,0.406 -1.0045128,0.4542 -0.9777943,0.5008 -0.949652,0.546 -0.920083,0.5898 -0.889091,0.6323 -0.856674,0.6732 -0.82283,0.7128 -0.787564,0.7508 -0.750871,0.7876 -0.712755,0.8228 -0.673212,0.8567 -0.632246,0.8891 -0.589855,0.9201 -0.546038,0.9496 -0.500796,0.9778 -0.454131,1.0045 -0.40604,1.0298 -0.356524,1.0537 -0.305583,1.0761 -0.253218,1.0972 -0.199427,1.1167 -0.144212,1.1349 -0.08757,1.1516 -0.02951,1.167 0.02951,1.167 0.08757,1.1516 0.144212,1.1349 0.199427,1.1167 0.253218,1.0972 0.305583,1.0761 0.356524,1.0537 0.40604,1.0298 0.454131,1.0045 0.500796,0.9778 0.546038,0.9496 0.589855,0.9201 0.632246,0.8891 0.673212,0.8567 0.712755,0.8228 0.750871,0.7876 0.787564,0.7508 0.82283,0.7128 0.856674,0.6732 0.889091,0.6323 0.920083,0.5898 0.949652,0.546 0.9777943,0.5008 1.0045128,0.4542 1.0298062,0.406 1.0536746,0.3565 1.0761183,0.3056 1.0971372,0.2532 1.1167311,0.1995 1.1349002,0.1442 1.1516444,0.088 1.1669639,0.03 1.1669639,-0.03 1.1516444,-0.088 1.1349002,-0.1442 1.1167311,-0.1995 1.0971372,-0.2532 1.0761183,-0.3056 1.0536746,-0.3565 1.0298062,-0.406 1.0045128,-0.4542 0.9777943,-0.5008 0.949652,-0.546 0.920083,-0.5898 0.889091,-0.6323 0.856674,-0.6732 0.82283,-0.7128 0.787564,-0.7508 0.750871,-0.7876 0.712755,-0.8228 0.673212,-0.8567 0.632246,-0.8891 0.589855,-0.9201 0.546038,-0.9496 0.500796,-0.9778 0.454131,-1.0045 0.40604,-1.0298 0.356524,-1.0537 0.305583,-1.0761 0.253218,-1.0972 0.199427,-1.1167 0.144212,-1.1349 0.08757,-1.1516 z"
         style="fill:none;stroke:#000000;stroke-width:0.0377953;stroke-miterlimit:4;stroke-dasharray:none"
         id="path1080" />
      <path
         d="m 77.480315,1122.5197 -0.01459,-0.5836 -0.04363,-0.576 -0.07197,-0.5675 -0.09959,-0.5585 -0.126495,-0.5487 -0.15269,-0.5382 -0.178173,-0.527 -0.202942,-0.5151 -0.227,-0.5024 -0.250345,-0.489 -0.272976,-0.475 -0.294895,-0.4602 -0.316101,-0.4446 -0.336595,-0.4285 -0.356375,-0.4116 -0.375444,-0.3939 -0.393799,-0.3755 -0.411442,-0.3565 -0.428372,-0.3367 -0.444589,-0.3163 -0.460093,-0.295 -0.474885,-0.2731 -0.488965,-0.2505 -0.50233,-0.2272 -0.514984,-0.2031 -0.526925,-0.1783 -0.538153,-0.1528 -0.548669,-0.1267 -0.558471,-0.1 -0.567561,-0.072 -0.575939,-0.044 -0.583603,-0.015 -0.583602,0.015 -0.575939,0.044 -0.567561,0.072 -0.558471,0.1 -0.548669,0.1267 -0.538153,0.1528 -0.526925,0.1783 -0.514984,0.2031 -0.50233,0.2272 -0.488965,0.2505 -0.474885,0.2731 -0.460093,0.295 -0.444589,0.3163 -0.428372,0.3367 -0.411442,0.3565 -0.393799,0.3755 -0.375444,0.3939 -0.356375,0.4116 -0.336595,0.4285 -0.316101,0.4446 -0.294895,0.4602 -0.272976,0.475 -0.250345,0.489 -0.227,0.5024 -0.202942,0.5151 -0.178173,0.527 -0.15269,0.5382 -0.126495,0.5487 -0.09959,0.5585 -0.07197,0.5675 -0.04363,0.576 -0.01459,0.5836 0.01459,0.5836 0.04363,0.576 0.07197,0.5675 0.09959,0.5585 0.126495,0.5487 0.15269,0.5382 0.178173,0.527 0.202942,0.5151 0.227,0.5024 0.250345,0.489 0.272976,0.475 0.294895,0.4602 0.316101,0.4446 0.336595,0.4285 0.356375,0.4116 0.375444,0.3939 0.393799,0.3755 0.411442,0.3565 0.428372,0.3367 0.444589,0.3163 0.460093,0.295 0.474885,0.2731 0.488965,0.2505 0.50233,0.2272 0.514984,0.2031 0.526925,0.1783 0.538153,0.1528 0.548669,0.1267 0.558471,0.1 0.567561,0.072 0.575939,0.044 0.583602,0.015 0.583603,-0.015 0.575939,-0.044 0.567561,-0.072 0.558471,-0.1 0.548669,-0.1267 0.538153,-0.1528 0.526925,-0.1783 0.514984,-0.2031 0.50233,-0.2272 0.488965,-0.2505 0.474885,-0.2731 0.460093,-0.295 0.444589,-0.3163 0.428372,-0.3367 0.411442,-0.3565 0.393799,-0.3755 0.375444,-0.3939 0.356375,-0.4116 0.336595,-0.4285 0.316101,-0.4446 0.294895,-0.4602 0.272976,-0.475 0.250345,-0.489 0.227,-0.5024 0.202942,-0.5151 0.178173,-0.527 0.15269,-0.5382 0.126495,-0.5487 0.09959,-0.5585 0.07197,-0.5675 0.04363,-0.576 z"
         style="fill:none;stroke:#000000;stroke-width:0.0377953;stroke-miterlimit:4;stroke-dasharray:none"
         id="path1082" />
      <path
         d="m 58.10785,1075.7504 -0.01459,-0.5836 -0.04363,-0.576 -0.07197,-0.5675 -0.09959,-0.5585 -0.126495,-0.5487 -0.15269,-0.5382 -0.178173,-0.527 -0.202942,-0.5151 -0.227,-0.5024 -0.250345,-0.489 -0.272976,-0.475 -0.294895,-0.4602 -0.316101,-0.4446 -0.336595,-0.4285 -0.356375,-0.4116 -0.375444,-0.3939 -0.393799,-0.3755 -0.411442,-0.3565 -0.428372,-0.3367 -0.444589,-0.3163 -0.460093,-0.295 -0.474885,-0.2731 -0.488965,-0.2505 -0.50233,-0.2272 -0.514984,-0.2031 -0.526925,-0.1783 -0.538153,-0.1528 -0.548669,-0.1267 -0.558471,-0.1 -0.567561,-0.072 -0.575939,-0.044 -0.583603,-0.015 -0.583602,0.015 -0.575939,0.044 -0.567561,0.072 -0.558471,0.1 -0.548669,0.1267 -0.538153,0.1528 -0.526925,0.1783 -0.514984,0.2031 -0.50233,0.2272 -0.488965,0.2505 -0.474885,0.2731 -0.460093,0.295 -0.444589,0.3163 -0.428372,0.3367 -0.411442,0.3565 -0.393799,0.3755 -0.375444,0.3939 -0.356375,0.4116 -0.336595,0.4285 -0.316101,0.4446 -0.294895,0.4602 -0.272976,0.475 -0.250345,0.489 -0.227,0.5024 -0.202942,0.5151 -0.178173,0.527 -0.15269,0.5382 -0.126495,0.5487 -0.09959,0.5585 -0.07197,0.5675 -0.04363,0.576 -0.01459,0.5836 0.01459,0.5836 0.04363,0.576 0.07197,0.5675 0.09959,0.5585 0.126495,0.5487 0.15269,0.5382 0.178173,0.527 0.202942,0.5151 0.227,0.5024 0.250345,0.489 0.272976,0.475 0.294895,0.4602 0.316101,0.4446 0.336595,0.4285 0.356375,0.4116 0.375444,0.3939 0.393799,0.3755 0.411442,0.3565 0.428372,0.3367 0.444589,0.3163 0.460093,0.295 0.474885,0.2731 0.488965,0.2505 0.50233,0.2272 0.514984,0.2031 0.526925,0.1783 0.538153,0.1528 0.548669,0.1267 0.558471,0.1 0.567561,0.072 0.575939,0.044 0.583602,0.015 0.583603,-0.015 0.575939,-0.044 0.567561,-0.072 0.558471,-0.1 0.548669,-0.1267 0.538153,-0.1528 0.526925,-0.1783 0.514984,-0.2031 0.50233,-0.2272 0.488965,-0.2505 0.474885,-0.2731 0.460093,-0.295 0.444589,-0.3163 0.428372,-0.3367 0.411442,-0.3565 0.393799,-0.3755 0.375444,-0.3939 0.356375,-0.4116 0.336595,-0.4285 0.316101,-0.4446 0.294895,-0.4602 0.272976,-0.475 0.250345,-0.489 0.227,-0.5024 0.202942,-0.5151 0.178173,-0.527 0.15269,-0.5382 0.126495,-0.5487 0.09959,-0.5585 0.07197,-0.5675 0.04363,-0.576 z"
         style="fill:none;stroke:#000000;stroke-width:0.0377953;stroke-miterlimit:4;stroke-dasharray:none"
         id="path1084" />
      <path
         d="m 11.338583,1056.378 -0.01475,-0.5835 -0.04379,-0.5758 -0.07211,-0.5675 -0.09971,-0.5583 -0.126609,-0.5486 -0.152791,-0.538 -0.178262,-0.5269 -0.20302,-0.5149 -0.227065,-0.5022 -0.2503988,-0.4889 -0.273019,-0.4749 -0.2949271,-0.46 -0.316123,-0.4446 -0.3366063,-0.4283 -0.3563772,-0.4114 -0.3754357,-0.3938 -0.3937818,-0.3754 -0.4114155,-0.3564 -0.4283366,-0.3366 -0.4445455,-0.3161 -0.4600418,-0.295 -0.4748258,-0.273 -0.4888973,-0.2504 -0.5022565,-0.227 -0.5149031,-0.2031 -0.5268373,-0.1782 -0.5380592,-0.1528 -0.5485686,-0.1266 -0.5583656,-0.1 -0.5674501,-0.072 -0.57582224,-0.044 L 0,1045.0394 l -0.58348196,0.015 -0.57582224,0.044 -0.5674501,0.072 -0.5583656,0.1 -0.5485686,0.1266 -0.5380592,0.1528 -0.5268373,0.1782 -0.5149031,0.2031 -0.5022565,0.227 -0.4888973,0.2504 -0.4748258,0.273 -0.4600418,0.295 -0.4445455,0.3161 -0.4283366,0.3366 -0.4114155,0.3564 -0.3937818,0.3754 -0.3754357,0.3938 -0.3563772,0.4114 -0.3366063,0.4283 -0.316123,0.4446 -0.2949271,0.46 -0.273019,0.4749 -0.2503988,0.4889 -0.227065,0.5022 -0.20302,0.5149 -0.178262,0.5269 -0.152791,0.538 -0.126609,0.5486 -0.09971,0.5583 -0.07211,0.5675 -0.04379,0.5758 -0.01475,0.5835 0.01475,0.5835 0.04379,0.5758 0.07211,0.5675 0.09971,0.5583 0.126609,0.5486 0.152791,0.538 0.178262,0.5269 0.20302,0.5149 0.227065,0.5022 0.2503988,0.4889 0.273019,0.4749 0.2949271,0.46 0.316123,0.4446 0.3366063,0.4283 0.3563772,0.4114 0.3754357,0.3938 0.3937818,0.3754 0.4114155,0.3564 0.4283366,0.3366 0.4445455,0.3161 0.4600418,0.295 0.4748258,0.273 0.4888973,0.2504 0.5022565,0.227 0.5149031,0.2031 0.5268373,0.1782 0.5380592,0.1528 0.5485686,0.1266 0.5583656,0.1 0.5674501,0.072 0.57582224,0.044 L 0,1067.7166 l 0.58348196,-0.015 0.57582224,-0.044 0.5674501,-0.072 0.5583656,-0.1 0.5485686,-0.1266 0.5380592,-0.1528 0.5268373,-0.1782 0.5149031,-0.2031 0.5022565,-0.227 0.4888973,-0.2504 0.4748258,-0.273 0.4600418,-0.295 0.4445455,-0.3161 0.4283366,-0.3366 0.4114155,-0.3564 0.3937818,-0.3754 0.3754357,-0.3938 0.3563772,-0.4114 0.3366063,-0.4283 0.316123,-0.4446 0.2949271,-0.46 0.273019,-0.4749 0.2503988,-0.4889 0.227065,-0.5022 0.20302,-0.5149 0.178262,-0.5269 0.152791,-0.538 0.126609,-0.5486 0.09971,-0.5583 0.07211,-0.5675 0.04379,-0.5758 z"
         style="fill:none;stroke:#000000;stroke-width:0.0377953;stroke-miterlimit:4;stroke-dasharray:none"
         id="path1086" />
      <path
         d="m -35.430685,1075.7504 -0.01459,-0.5836 -0.04363,-0.576 -0.07197,-0.5675 -0.09959,-0.5585 -0.126495,-0.5487 -0.15269,-0.5382 -0.178173,-0.527 -0.202942,-0.5151 -0.227,-0.5024 -0.250345,-0.489 -0.272976,-0.475 -0.294895,-0.4602 -0.316101,-0.4446 -0.336595,-0.4285 -0.356375,-0.4116 -0.375444,-0.3939 -0.393799,-0.3755 -0.411442,-0.3565 -0.428372,-0.3367 -0.444589,-0.3163 -0.460093,-0.295 -0.474885,-0.2731 -0.488965,-0.2505 -0.50233,-0.2272 -0.514984,-0.2031 -0.526925,-0.1783 -0.538153,-0.1528 -0.548669,-0.1267 -0.558471,-0.1 -0.567561,-0.072 -0.575939,-0.044 -0.583603,-0.015 -0.583602,0.015 -0.575939,0.044 -0.567561,0.072 -0.558471,0.1 -0.548669,0.1267 -0.538153,0.1528 -0.526925,0.1783 -0.514984,0.2031 -0.50233,0.2272 -0.488965,0.2505 -0.474885,0.2731 -0.460093,0.295 -0.444589,0.3163 -0.428372,0.3367 -0.411442,0.3565 -0.393799,0.3755 -0.375444,0.3939 -0.356375,0.4116 -0.336595,0.4285 -0.316101,0.4446 -0.294895,0.4602 -0.272976,0.475 -0.250345,0.489 -0.227,0.5024 -0.202942,0.5151 -0.178173,0.527 -0.15269,0.5382 -0.126495,0.5487 -0.09959,0.5585 -0.07197,0.5675 -0.04363,0.576 -0.01459,0.5836 0.01459,0.5836 0.04363,0.576 0.07197,0.5675 0.09959,0.5585 0.126495,0.5487 0.15269,0.5382 0.178173,0.527 0.202942,0.5151 0.227,0.5024 0.250345,0.489 0.272976,0.475 0.294895,0.4602 0.316101,0.4446 0.336595,0.4285 0.356375,0.4116 0.375444,0.3939 0.393799,0.3755 0.411442,0.3565 0.428372,0.3367 0.444589,0.3163 0.460093,0.295 0.474885,0.2731 0.488965,0.2505 0.50233,0.2272 0.514984,0.2031 0.526925,0.1783 0.538153,0.1528 0.548669,0.1267 0.558471,0.1 0.567561,0.072 0.575939,0.044 0.583602,0.015 0.583603,-0.015 0.575939,-0.044 0.567561,-0.072 0.558471,-0.1 0.548669,-0.1267 0.538153,-0.1528 0.526925,-0.1783 0.514984,-0.2031 0.50233,-0.2272 0.488965,-0.2505 0.474885,-0.2731 0.460093,-0.295 0.444589,-0.3163 0.428372,-0.3367 0.411442,-0.3565 0.393799,-0.3755 0.375444,-0.3939 0.356375,-0.4116 0.336595,-0.4285 0.316101,-0.4446 0.294895,-0.4602 0.272976,-0.475 0.250345,-0.489 0.227,-0.5024 0.202942,-0.5151 0.178173,-0.527 0.15269,-0.5382 0.126495,-0.5487 0.09959,-0.5585 0.07197,-0.5675 0.04363,-0.576 z"
         style="fill:none;stroke:#000000;stroke-width:0.0377953;stroke-miterlimit:4;stroke-dasharray:none"
         id="path1088" />
      <path
         d="m -54.80315,1122.5197 -0.01459,-0.5836 -0.04363,-0.576 -0.07197,-0.5675 -0.09959,-0.5585 -0.126495,-0.5487 -0.15269,-0.5382 -0.178173,-0.527 -0.202942,-0.5151 -0.227,-0.5024 -0.250345,-0.489 -0.272976,-0.475 -0.294895,-0.4602 -0.316101,-0.4446 -0.336595,-0.4285 -0.356375,-0.4116 -0.375444,-0.3939 -0.393799,-0.3755 -0.411442,-0.3565 -0.428372,-0.3367 -0.444589,-0.3163 -0.460093,-0.295 -0.474885,-0.2731 -0.488965,-0.2505 -0.50233,-0.2272 -0.514984,-0.2031 -0.526925,-0.1783 -0.538153,-0.1528 -0.548669,-0.1267 -0.558471,-0.1 -0.567561,-0.072 -0.575939,-0.044 -0.583603,-0.015 -0.583602,0.015 -0.575939,0.044 -0.567561,0.072 -0.558471,0.1 -0.548669,0.1267 -0.538153,0.1528 -0.526925,0.1783 -0.514984,0.2031 -0.50233,0.2272 -0.488965,0.2505 -0.474885,0.2731 -0.460093,0.295 -0.444589,0.3163 -0.428372,0.3367 -0.411442,0.3565 -0.393799,0.3755 -0.375444,0.3939 -0.356375,0.4116 -0.336595,0.4285 -0.316101,0.4446 -0.294895,0.4602 -0.272976,0.475 -0.250345,0.489 -0.227,0.5024 -0.202942,0.5151 -0.178173,0.527 -0.15269,0.5382 -0.126495,0.5487 -0.09959,0.5585 -0.07197,0.5675 -0.04363,0.576 -0.01459,0.5836 0.01459,0.5836 0.04363,0.576 0.07197,0.5675 0.09959,0.5585 0.126495,0.5487 0.15269,0.5382 0.178173,0.527 0.202942,0.5151 0.227,0.5024 0.250345,0.489 0.272976,0.475 0.294895,0.4602 0.316101,0.4446 0.336595,0.4285 0.356375,0.4116 0.375444,0.3939 0.393799,0.3755 0.411442,0.3565 0.428372,0.3367 0.444589,0.3163 0.460093,0.295 0.474885,0.2731 0.488965,0.2505 0.50233,0.2272 0.514984,0.2031 0.526925,0.1783 0.538153,0.1528 0.548669,0.1267 0.558471,0.1 0.567561,0.072 0.575939,0.044 0.583602,0.015 0.583603,-0.015 0.575939,-0.044 0.567561,-0.072 0.558471,-0.1 0.548669,-0.1267 0.538153,-0.1528 0.526925,-0.1783 0.514984,-0.2031 0.50233,-0.2272 0.488965,-0.2505 0.474885,-0.2731 0.460093,-0.295 0.444589,-0.3163 0.428372,-0.3367 0.411442,-0.3565 0.393799,-0.3755 0.375444,-0.3939 0.356375,-0.4116 0.336595,-0.4285 0.316101,-0.4446 0.294895,-0.4602 0.272976,-0.475 0.250345,-0.489 0.227,-0.5024 0.202942,-0.5151 0.178173,-0.527 0.15269,-0.5382 0.126495,-0.5487 0.09959,-0.5585 0.07197,-0.5675 0.04363,-0.576 z"
         style="fill:none;stroke:#000000;stroke-width:0.0377953;stroke-miterlimit:4;stroke-dasharray:none"
         id="path1090" />
      <path
         d="m -35.430685,1169.289 -0.01459,-0.5836 -0.04363,-0.576 -0.07197,-0.5675 -0.09959,-0.5585 -0.126495,-0.5487 -0.15269,-0.5382 -0.178173,-0.527 -0.202942,-0.5151 -0.227,-0.5024 -0.250345,-0.489 -0.272976,-0.475 -0.294895,-0.4602 -0.316101,-0.4446 -0.336595,-0.4285 -0.356375,-0.4116 -0.375444,-0.3939 -0.393799,-0.3755 -0.411442,-0.3565 -0.428372,-0.3367 -0.444589,-0.3163 -0.460093,-0.295 -0.474885,-0.2731 -0.488965,-0.2505 -0.50233,-0.2272 -0.514984,-0.2031 -0.526925,-0.1783 -0.538153,-0.1528 -0.548669,-0.1267 -0.558471,-0.1 -0.567561,-0.072 -0.575939,-0.044 -0.583603,-0.015 -0.583602,0.015 -0.575939,0.044 -0.567561,0.072 -0.558471,0.1 -0.548669,0.1267 -0.538153,0.1528 -0.526925,0.1783 -0.514984,0.2031 -0.50233,0.2272 -0.488965,0.2505 -0.474885,0.2731 -0.460093,0.295 -0.444589,0.3163 -0.428372,0.3367 -0.411442,0.3565 -0.393799,0.3755 -0.375444,0.3939 -0.356375,0.4116 -0.336595,0.4285 -0.316101,0.4446 -0.294895,0.4602 -0.272976,0.475 -0.250345,0.489 -0.227,0.5024 -0.202942,0.5151 -0.178173,0.527 -0.15269,0.5382 -0.126495,0.5487 -0.09959,0.5585 -0.07197,0.5675 -0.04363,0.576 -0.01459,0.5836 0.01459,0.5836 0.04363,0.576 0.07197,0.5675 0.09959,0.5585 0.126495,0.5487 0.15269,0.5382 0.178173,0.527 0.202942,0.5151 0.227,0.5024 0.250345,0.489 0.272976,0.475 0.294895,0.4602 0.316101,0.4446 0.336595,0.4285 0.356375,0.4116 0.375444,0.3939 0.393799,0.3755 0.411442,0.3565 0.428372,0.3367 0.444589,0.3163 0.460093,0.295 0.474885,0.2731 0.488965,0.2505 0.50233,0.2272 0.514984,0.2031 0.526925,0.1783 0.538153,0.1528 0.548669,0.1267 0.558471,0.1 0.567561,0.072 0.575939,0.044 0.583602,0.015 0.583603,-0.015 0.575939,-0.044 0.567561,-0.072 0.558471,-0.1 0.548669,-0.1267 0.538153,-0.1528 0.526925,-0.1783 0.514984,-0.2031 0.50233,-0.2272 0.488965,-0.2505 0.474885,-0.2731 0.460093,-0.295 0.444589,-0.3163 0.428372,-0.3367 0.411442,-0.3565 0.393799,-0.3755 0.375444,-0.3939 0.356375,-0.4116 0.336595,-0.4285 0.316101,-0.4446 0.294895,-0.4602 0.272976,-0.475 0.250345,-0.489 0.227,-0.5024 0.202942,-0.5151 0.178173,-0.527 0.15269,-0.5382 0.126495,-0.5487 0.09959,-0.5585 0.07197,-0.5675 0.04363,-0.576 z"
         style="fill:none;stroke:#000000;stroke-width:0.0377953;stroke-miterlimit:4;stroke-dasharray:none"
         id="path1092" />
      <path
         d="m 11.338583,1188.6614 -0.01475,-0.5835 -0.04379,-0.5758 -0.07211,-0.5675 -0.09971,-0.5583 -0.126609,-0.5486 -0.152791,-0.538 -0.178262,-0.5269 -0.20302,-0.5149 -0.227065,-0.5022 -0.2503988,-0.4889 -0.273019,-0.4749 -0.2949271,-0.46 -0.316123,-0.4446 -0.3366063,-0.4283 -0.3563772,-0.4114 -0.3754357,-0.3938 -0.3937818,-0.3754 -0.4114155,-0.3564 -0.4283366,-0.3366 -0.4445455,-0.3161 -0.4600418,-0.295 -0.4748258,-0.273 -0.4888973,-0.2504 -0.5022565,-0.227 -0.5149031,-0.2031 -0.5268373,-0.1782 -0.5380592,-0.1528 -0.5485686,-0.1266 -0.5583656,-0.1 -0.5674501,-0.072 -0.57582224,-0.044 L 0,1177.3228 l -0.58348196,0.015 -0.57582224,0.044 -0.5674501,0.072 -0.5583656,0.1 -0.5485686,0.1266 -0.5380592,0.1528 -0.5268373,0.1782 -0.5149031,0.2031 -0.5022565,0.227 -0.4888973,0.2504 -0.4748258,0.273 -0.4600418,0.295 -0.4445455,0.3161 -0.4283366,0.3366 -0.4114155,0.3564 -0.3937818,0.3754 -0.3754357,0.3938 -0.3563772,0.4114 -0.3366063,0.4283 -0.316123,0.4446 -0.2949271,0.46 -0.273019,0.4749 -0.2503988,0.4889 -0.227065,0.5022 -0.20302,0.5149 -0.178262,0.5269 -0.152791,0.538 -0.126609,0.5486 -0.09971,0.5583 -0.07211,0.5675 -0.04379,0.5758 -0.01475,0.5835 0.01475,0.5835 0.04379,0.5758 0.07211,0.5675 0.09971,0.5583 0.126609,0.5486 0.152791,0.538 0.178262,0.5269 0.20302,0.5149 0.227065,0.5022 0.2503988,0.4889 0.273019,0.4749 0.2949271,0.46 0.316123,0.4446 0.3366063,0.4283 0.3563772,0.4114 0.3754357,0.3938 0.3937818,0.3754 0.4114155,0.3564 0.4283366,0.3366 0.4445455,0.3161 0.4600418,0.295 0.4748258,0.273 0.4888973,0.2504 0.5022565,0.227 0.5149031,0.2031 0.5268373,0.1782 0.5380592,0.1528 0.5485686,0.1266 0.5583656,0.1 0.5674501,0.072 0.57582224,0.044 L 0,1200 l 0.58348196,-0.015 0.57582224,-0.044 0.5674501,-0.072 0.5583656,-0.1 0.5485686,-0.1266 0.5380592,-0.1528 0.5268373,-0.1782 0.5149031,-0.2031 0.5022565,-0.227 0.4888973,-0.2504 0.4748258,-0.273 0.4600418,-0.295 0.4445455,-0.3161 0.4283366,-0.3366 0.4114155,-0.3564 0.3937818,-0.3754 0.3754357,-0.3938 0.3563772,-0.4114 0.3366063,-0.4283 0.316123,-0.4446 0.2949271,-0.46 0.273019,-0.4749 0.2503988,-0.4889 0.227065,-0.5022 0.20302,-0.5149 0.178262,-0.5269 0.152791,-0.538 0.126609,-0.5486 0.09971,-0.5583 0.07211,-0.5675 0.04379,-0.5758 z"
         style="fill:none;stroke:#000000;stroke-width:0.0377953;stroke-miterlimit:4;stroke-dasharray:none"
         id="path1094" />
      <path
         d="m 58.10785,1169.289 -0.01459,-0.5836 -0.04363,-0.576 -0.07197,-0.5675 -0.09959,-0.5585 -0.126495,-0.5487 -0.15269,-0.5382 -0.178173,-0.527 -0.202942,-0.5151 -0.227,-0.5024 -0.250345,-0.489 -0.272976,-0.475 -0.294895,-0.4602 -0.316101,-0.4446 -0.336595,-0.4285 -0.356375,-0.4116 -0.375444,-0.3939 -0.393799,-0.3755 -0.411442,-0.3565 -0.428372,-0.3367 -0.444589,-0.3163 -0.460093,-0.295 -0.474885,-0.2731 -0.488965,-0.2505 -0.50233,-0.2272 -0.514984,-0.2031 -0.526925,-0.1783 -0.538153,-0.1528 -0.548669,-0.1267 -0.558471,-0.1 -0.567561,-0.072 -0.575939,-0.044 -0.583603,-0.015 -0.583602,0.015 -0.575939,0.044 -0.567561,0.072 -0.558471,0.1 -0.548669,0.1267 -0.538153,0.1528 -0.526925,0.1783 -0.514984,0.2031 -0.50233,0.2272 -0.488965,0.2505 -0.474885,0.2731 -0.460093,0.295 -0.444589,0.3163 -0.428372,0.3367 -0.411442,0.3565 -0.393799,0.3755 -0.375444,0.3939 -0.356375,0.4116 -0.336595,0.4285 -0.316101,0.4446 -0.294895,0.4602 -0.272976,0.475 -0.250345,0.489 -0.227,0.5024 -0.202942,0.5151 -0.178173,0.527 -0.15269,0.5382 -0.126495,0.5487 -0.09959,0.5585 -0.07197,0.5675 -0.04363,0.576 -0.01459,0.5836 0.01459,0.5836 0.04363,0.576 0.07197,0.5675 0.09959,0.5585 0.126495,0.5487 0.15269,0.5382 0.178173,0.527 0.202942,0.5151 0.227,0.5024 0.250345,0.489 0.272976,0.475 0.294895,0.4602 0.316101,0.4446 0.336595,0.4285 0.356375,0.4116 0.375444,0.3939 0.393799,0.3755 0.411442,0.3565 0.428372,0.3367 0.444589,0.3163 0.460093,0.295 0.474885,0.2731 0.488965,0.2505 0.50233,0.2272 0.514984,0.2031 0.526925,0.1783 0.538153,0.1528 0.548669,0.1267 0.558471,0.1 0.567561,0.072 0.575939,0.044 0.583602,0.015 0.583603,-0.015 0.575939,-0.044 0.567561,-0.072 0.558471,-0.1 0.548669,-0.1267 0.538153,-0.1528 0.526925,-0.1783 0.514984,-0.2031 0.50233,-0.2272 0.488965,-0.2505 0.474885,-0.2731 0.460093,-0.295 0.444589,-0.3163 0.428372,-0.3367 0.411442,-0.3565 0.393799,-0.3755 0.375444,-0.3939 0.356375,-0.4116 0.336595,-0.4285 0.316101,-0.4446 0.294895,-0.4602 0.272976,-0.475 0.250345,-0.489 0.227,-0.5024 0.202942,-0.5151 0.178173,-0.527 0.15269,-0.5382 0.126495,-0.5487 0.09959,-0.5585 0.07197,-0.5675 0.04363,-0.576 z"
         style="fill:none;stroke:#000000;stroke-width:0.0377953;stroke-miterlimit:4;stroke-dasharray:none"
         id="path1096" />
    </g>
    <g
       id="g1100"
       style="stroke-width:0.0377953;stroke-miterlimit:4;stroke-dasharray:none"
       transform="matrix(0.26458333,0,0,0.26458333,49.41507,-195.71847)" />
  </g>
</svg>
