<?xml version="1.0" encoding="UTF-8" standalone="no"?>
<!-- Created with Inkscape (http://www.inkscape.org/) -->

<svg
   width="51.540714mm"
   height="51.827408mm"
   viewBox="0 0 51.540714 51.827408"
   version="1.1"
   id="svg5"
   xmlns="http://www.w3.org/2000/svg"
   xmlns:svg="http://www.w3.org/2000/svg">
  <defs
     id="defs2">
    <marker
       id="DistanceX"
       orient="auto"
       refX="0"
       refY="0"
       style="overflow:visible">
      <path
         d="M 3,-3 -3,3 M 0,-5 V 5"
         style="stroke:#000000;stroke-width:0.5"
         id="path826" />
    </marker>
    <pattern
       id="Hatch"
       patternUnits="userSpaceOnUse"
       width="8"
       height="8"
       x="0"
       y="0">
      <path
         d="M8 4 l-4,4"
         stroke="#000000"
         stroke-width="0.25"
         linecap="square"
         id="path829" />
      <path
         d="M6 2 l-4,4"
         stroke="#000000"
         stroke-width="0.25"
         linecap="square"
         id="path831" />
      <path
         d="M4 0 l-4,4"
         stroke="#000000"
         stroke-width="0.25"
         linecap="square"
         id="path833" />
    </pattern>
    <symbol
       id="*Model_Space" />
    <symbol
       id="*Paper_Space" />
  </defs>
  <g
     id="layer1"
     transform="translate(-115.39841,-38.533042)">
    <path
       d="m 146.40332,64.48214 -0.007,-0.307617 -0.0214,-0.297851 -0.0351,-0.288093 -0.0485,-0.278313 -0.0613,-0.268555 -0.0736,-0.258789 -0.0855,-0.249024 -0.097,-0.239257 -0.10796,-0.229498 -0.11848,-0.219721 -0.12856,-0.20996 -0.13816,-0.200196 -0.14732,-0.190428 -0.15603,-0.180665 -0.16426,-0.170897 -0.17204,-0.161134 -0.17937,-0.151367 -0.18623,-0.141602 -0.19264,-0.131836 -0.1986,-0.12207 -0.20408,-0.112304 -0.20912,-0.10254 -0.2137,-0.09277 -0.21782,-0.08301 -0.22148,-0.07325 -0.22469,-0.06347 -0.22743,-0.05371 -0.22972,-0.04395 -0.23155,-0.03418 -0.23293,-0.02441 -0.23384,-0.01465 -0.2343,-0.0049 -0.2343,0.0049 -0.23384,0.01465 -0.23293,0.02442 -0.23155,0.03417 -0.22972,0.04394 -0.22743,0.05372 -0.22469,0.06348 -0.22148,0.07324 -0.21782,0.08301 -0.2137,0.09278 -0.20912,0.102537 -0.20408,0.112307 -0.1986,0.122072 -0.19264,0.131834 -0.18623,0.141602 -0.17937,0.151367 -0.17204,0.161132 -0.16426,0.170899 -0.15602,0.180666 -0.14733,0.190427 -0.13817,0.200192 -0.12855,0.209964 -0.11849,0.219727 -0.10795,0.229492 -0.097,0.239263 -0.0855,0.249018 -0.0736,0.258789 -0.0613,0.268555 -0.0484,0.27832 -0.0352,0.288086 -0.0214,0.297851 -0.007,0.307617 0.007,0.2573 0.0192,0.253921 0.0317,0.250241 0.0441,0.246213 0.0558,0.241904 0.0674,0.237269 0.0786,0.232319 0.0895,0.227059 0.10013,0.221488 0.11042,0.215583 0.1204,0.20939 0.13005,0.202861 0.13941,0.196041 0.14843,0.188875 0.15715,0.181421 0.16556,0.173649 0.17365,0.165554 0.18142,0.157154 0.18888,0.148434 0.19603,0.139402 0.20287,0.130054 0.20938,0.120394 0.21559,0.11042 0.22148,0.100128 0.22706,0.08953 0.23232,0.07861 0.23727,0.06738 0.24191,0.05583 0.24622,0.04397 0.25023,0.0318 0.25392,0.01931 0.2573,0.0065 0.2573,-0.0065 0.25392,-0.01933 0.25023,-0.03181 0.24622,-0.04396 0.24191,-0.05583 0.23727,-0.06737 0.23232,-0.07861 0.22706,-0.08953 0.22148,-0.100128 0.21559,-0.11042 0.20938,-0.120392 0.20287,-0.130056 0.19603,-0.139401 0.18888,-0.148435 0.18142,-0.157152 0.17365,-0.165556 0.16556,-0.173649 0.15715,-0.181421 0.14843,-0.188886 0.13941,-0.19603 0.13006,-0.202873 0.12039,-0.209378 0.11042,-0.215593 0.10013,-0.221478 0.0895,-0.22705 0.0786,-0.232328 0.0674,-0.237269 0.0558,-0.241904 0.044,-0.246223 0.0318,-0.250231 0.0193,-0.253922 0.006,-0.257299 h -2e-5 z"
       style="fill:none;stroke:#000000;stroke-width:0.01;stroke-miterlimit:4;stroke-dasharray:none"
       id="path842" />
    <path
       d="m 161.90332,64.48214 -0.0172,-0.363281 -0.0502,-0.339844 -0.081,-0.316399 -0.10948,-0.292975 -0.13586,-0.269527 -0.16004,-0.246098 -0.18201,-0.222656 -0.20178,-0.199219 -0.21936,-0.175783 -0.23474,-0.152342 -0.24793,-0.128906 -0.25891,-0.105469 -0.2677,-0.08203 -0.27429,-0.05859 -0.27869,-0.03515 -0.28088,-0.01172 -0.28088,0.01172 -0.27869,0.03515 -0.27429,0.05859 -0.2677,0.08203 -0.25891,0.105467 -0.24793,0.128908 -0.23474,0.152344 -0.21936,0.175781 -0.20178,0.199221 -0.18201,0.222654 -0.16004,0.246094 -0.13586,0.269531 -0.10949,0.292964 -0.0809,0.31641 -0.0502,0.33984 -0.0172,0.363285 0.0172,0.363281 0.0502,0.339844 0.081,0.316399 0.10948,0.292975 0.13586,0.269527 0.16004,0.246098 0.18201,0.222656 0.20178,0.199219 0.21936,0.175779 0.23474,0.152346 0.24793,0.128906 0.25891,0.105469 0.2677,0.08203 0.27429,0.05859 0.27869,0.03515 0.28088,0.01172 0.28088,-0.01172 0.27869,-0.03515 0.27429,-0.05859 0.2677,-0.08203 0.25891,-0.105467 0.24793,-0.128908 0.23474,-0.152344 0.21936,-0.175781 0.20178,-0.199217 0.18201,-0.222658 0.16004,-0.246094 0.13586,-0.269531 0.10949,-0.292964 0.0809,-0.31641 0.0502,-0.33984 z"
       style="fill:none;stroke:#000000;stroke-width:0.01;stroke-miterlimit:4;stroke-dasharray:none"
       id="path844" />
    <path
       d="m 156.77769,52.107763 -0.0172,-0.363281 -0.0502,-0.339844 -0.0809,-0.316399 -0.10948,-0.292975 -0.13586,-0.269527 -0.16004,-0.246098 -0.18201,-0.222656 -0.20178,-0.199219 -0.21936,-0.175783 -0.23474,-0.152342 -0.24793,-0.128906 -0.25891,-0.105469 -0.2677,-0.08203 -0.27429,-0.05859 -0.27869,-0.03515 -0.28088,-0.01172 -0.28088,0.01172 -0.27869,0.03515 -0.27429,0.05859 -0.2677,0.08203 -0.25891,0.105467 -0.24793,0.128908 -0.23474,0.152344 -0.21936,0.175781 -0.20178,0.199221 -0.18201,0.222654 -0.16004,0.246094 -0.13586,0.269531 -0.10949,0.292964 -0.0809,0.31641 -0.0502,0.33984 -0.0172,0.363285 0.0172,0.363281 0.0502,0.339844 0.081,0.316399 0.10948,0.292975 0.13586,0.269527 0.16004,0.246098 0.18201,0.222656 0.20178,0.199219 0.21936,0.175779 0.23474,0.152346 0.24793,0.128906 0.25891,0.105469 0.2677,0.08203 0.27429,0.05859 0.27869,0.03515 0.28088,0.01172 0.28088,-0.01172 0.27869,-0.03515 0.27429,-0.05859 0.2677,-0.08203 0.25891,-0.105467 0.24793,-0.128908 0.23474,-0.152344 0.21936,-0.175781 0.20178,-0.199217 0.18201,-0.222658 0.16004,-0.246094 0.13586,-0.269531 0.10949,-0.292964 0.0809,-0.31641 0.0502,-0.33984 0.0172,-0.363285 z"
       style="fill:none;stroke:#000000;stroke-width:0.01;stroke-miterlimit:4;stroke-dasharray:none"
       id="path846" />
    <path
       d="m 144.40332,46.982149 -0.0172,-0.363281 -0.0502,-0.339844 -0.081,-0.316399 -0.10948,-0.292975 -0.13586,-0.269527 -0.16004,-0.246098 -0.18201,-0.222656 -0.20178,-0.199219 -0.21936,-0.175783 -0.23474,-0.152342 -0.24793,-0.128906 -0.25891,-0.105469 -0.2677,-0.08203 -0.27429,-0.05859 -0.27869,-0.03515 -0.28088,-0.01172 -0.28088,0.01172 -0.27869,0.03515 -0.27429,0.05859 -0.2677,0.08203 -0.25891,0.105467 -0.24793,0.128908 -0.23474,0.152344 -0.21936,0.175781 -0.20178,0.199221 -0.18201,0.222654 -0.16004,0.246094 -0.13586,0.269531 -0.10949,0.292964 -0.0809,0.31641 -0.0502,0.33984 -0.0172,0.363285 0.0172,0.363281 0.0502,0.339844 0.081,0.316399 0.10948,0.292975 0.13586,0.269527 0.16004,0.246098 0.18201,0.222656 0.20178,0.199219 0.21936,0.175779 0.23474,0.152346 0.24793,0.128906 0.25891,0.105469 0.2677,0.08203 0.27429,0.05859 0.27869,0.03515 0.28088,0.01172 0.28088,-0.01172 0.27869,-0.03515 0.27429,-0.05859 0.2677,-0.08203 0.25891,-0.105467 0.24793,-0.128908 0.23474,-0.152344 0.21936,-0.175781 0.20178,-0.199217 0.18201,-0.222658 0.16004,-0.246094 0.13586,-0.269531 0.10949,-0.292964 0.0809,-0.31641 0.0502,-0.33984 z"
       style="fill:none;stroke:#000000;stroke-width:0.01;stroke-miterlimit:4;stroke-dasharray:none"
       id="path848" />
    <path
       d="m 132.02895,52.107763 -0.0172,-0.363281 -0.0502,-0.339844 -0.081,-0.316399 -0.10948,-0.292975 -0.13586,-0.269527 -0.16004,-0.246098 -0.18201,-0.222656 -0.20178,-0.199219 -0.21936,-0.175783 -0.23474,-0.152342 -0.24793,-0.128906 -0.25891,-0.105469 -0.2677,-0.08203 -0.27429,-0.05859 -0.27869,-0.03515 -0.28088,-0.01172 -0.28088,0.01172 -0.27869,0.03515 -0.27429,0.05859 -0.2677,0.08203 -0.25891,0.105467 -0.24793,0.128908 -0.23474,0.152344 -0.21936,0.175781 -0.20178,0.199217 -0.18201,0.222658 -0.16004,0.246094 -0.13586,0.269531 -0.10949,0.292964 -0.0809,0.31641 -0.0502,0.33984 -0.0172,0.363285 0.0172,0.363281 0.0502,0.339844 0.081,0.316406 0.10948,0.292968 0.13586,0.269527 0.16004,0.246098 0.18201,0.222656 0.20178,0.199219 0.21936,0.175783 0.23474,0.152342 0.24793,0.128906 0.25891,0.105469 0.2677,0.08203 0.27429,0.05859 0.27869,0.03515 0.28088,0.01172 0.2809,-0.01165 0.27867,-0.03522 0.27408,-0.05863 0.26791,-0.08199 0.25891,-0.105467 0.24793,-0.128908 0.23474,-0.152344 0.21936,-0.175781 0.20178,-0.199217 0.18201,-0.222658 0.16004,-0.246094 0.13586,-0.269531 0.10949,-0.292964 0.0809,-0.31641 0.0502,-0.33984 z"
       style="fill:none;stroke:#000000;stroke-width:0.01;stroke-miterlimit:4;stroke-dasharray:none"
       id="path850" />
    <path
       d="m 126.90332,64.48214 -0.0172,-0.363281 -0.0502,-0.339844 -0.081,-0.316399 -0.10948,-0.292975 -0.13586,-0.269527 -0.16004,-0.246098 -0.18201,-0.222656 -0.20178,-0.199219 -0.21936,-0.175783 -0.23474,-0.152342 -0.24793,-0.128906 -0.25891,-0.105469 -0.2677,-0.08203 -0.27429,-0.05859 -0.27869,-0.03515 -0.28088,-0.01172 -0.28088,0.01172 -0.27869,0.03515 -0.27429,0.05859 -0.2677,0.08203 -0.25891,0.105467 -0.24793,0.128908 -0.23474,0.152344 -0.21936,0.175781 -0.20178,0.199221 -0.18201,0.222654 -0.16004,0.246094 -0.13586,0.269531 -0.10949,0.292964 -0.0809,0.31641 -0.0502,0.33984 -0.0172,0.363285 0.0172,0.363281 0.0502,0.339844 0.081,0.316406 0.10948,0.292968 0.13586,0.269527 0.16004,0.246098 0.18201,0.222656 0.20178,0.199219 0.21936,0.175779 0.23474,0.152346 0.24793,0.128906 0.25891,0.105469 0.2677,0.08203 0.27429,0.05859 0.27869,0.03515 0.28088,0.01172 0.28088,-0.01172 0.27869,-0.03515 0.27429,-0.05859 0.2677,-0.08203 0.25891,-0.105467 0.24793,-0.128908 0.23474,-0.152344 0.21936,-0.175781 0.20178,-0.199217 0.18201,-0.222658 0.16004,-0.246094 0.13586,-0.269531 0.10949,-0.292964 0.0809,-0.31641 0.0502,-0.33984 z"
       style="fill:none;stroke:#000000;stroke-width:0.01;stroke-miterlimit:4;stroke-dasharray:none"
       id="path852" />
    <path
       d="m 132.02895,76.856517 -0.0172,-0.363281 -0.0502,-0.339844 -0.081,-0.316399 -0.10948,-0.292975 -0.13586,-0.269527 -0.16004,-0.246098 -0.18201,-0.222656 -0.20178,-0.199219 -0.21936,-0.175783 -0.23474,-0.152342 -0.24793,-0.128906 -0.25891,-0.105469 -0.2677,-0.08203 -0.27429,-0.05859 -0.27869,-0.03515 -0.28088,-0.01172 -0.28088,0.01172 -0.27869,0.03515 -0.27429,0.05859 -0.2677,0.08203 -0.25891,0.105467 -0.24793,0.128908 -0.23474,0.152344 -0.21936,0.175781 -0.20178,0.199219 -0.18201,0.222656 -0.16004,0.246094 -0.13586,0.269531 -0.10949,0.292964 -0.0809,0.31641 -0.0502,0.33984 -0.0172,0.363285 0.0172,0.363281 0.0502,0.339844 0.081,0.316406 0.10948,0.292968 0.13586,0.269527 0.16004,0.246098 0.18201,0.222656 0.20178,0.199219 0.21936,0.175781 0.23474,0.152344 0.24793,0.128906 0.25891,0.105469 0.2677,0.08203 0.27429,0.05859 0.27869,0.03515 0.28088,0.01172 0.28088,-0.01172 0.27869,-0.03515 0.27429,-0.05859 0.2677,-0.08203 0.25891,-0.105467 0.24793,-0.128908 0.23474,-0.152344 0.21936,-0.175781 0.20178,-0.199217 0.18201,-0.222658 0.16004,-0.246094 0.13586,-0.269531 0.10949,-0.292964 0.0809,-0.31641 0.0502,-0.33984 z"
       style="fill:none;stroke:#000000;stroke-width:0.01;stroke-miterlimit:4;stroke-dasharray:none"
       id="path854" />
    <path
       d="m 144.40332,81.982131 -0.0172,-0.363281 -0.0502,-0.339844 -0.081,-0.316399 -0.10948,-0.292975 -0.13586,-0.269527 -0.16004,-0.246098 -0.18201,-0.222656 -0.20178,-0.199219 -0.21936,-0.175783 -0.23474,-0.152342 -0.24793,-0.128906 -0.25891,-0.105469 -0.2677,-0.08203 -0.27429,-0.05859 -0.27869,-0.03515 -0.28088,-0.01172 -0.28088,0.01172 -0.27869,0.03515 -0.27429,0.05859 -0.2677,0.08203 -0.25891,0.105467 -0.24793,0.128908 -0.23474,0.152344 -0.21936,0.175781 -0.20178,0.199221 -0.18201,0.222654 -0.16004,0.246094 -0.13586,0.269531 -0.10949,0.292964 -0.0809,0.31641 -0.0502,0.33984 -0.0172,0.363285 0.0172,0.363281 0.0502,0.339844 0.081,0.316399 0.10948,0.292975 0.13586,0.269527 0.16004,0.246098 0.18201,0.222656 0.20178,0.199219 0.21936,0.175779 0.23474,0.152346 0.24793,0.128906 0.25891,0.105469 0.2677,0.08203 0.27429,0.05859 0.27869,0.03515 0.28088,0.01172 0.28088,-0.01172 0.27869,-0.03515 0.27429,-0.05859 0.2677,-0.08203 0.25891,-0.105467 0.24793,-0.128908 0.23474,-0.152344 0.21936,-0.175781 0.20178,-0.199217 0.18201,-0.222658 0.16004,-0.246094 0.13586,-0.269531 0.10949,-0.292964 0.0809,-0.31641 0.0502,-0.33984 z"
       style="fill:none;stroke:#000000;stroke-width:0.01;stroke-miterlimit:4;stroke-dasharray:none"
       id="path856" />
    <path
       d="m 156.77769,76.856517 -0.0172,-0.363281 -0.0502,-0.339844 -0.0809,-0.316399 -0.10948,-0.292975 -0.13586,-0.269527 -0.16004,-0.246098 -0.18201,-0.222656 -0.20178,-0.199219 -0.21936,-0.175783 -0.23474,-0.152342 -0.24793,-0.128906 -0.25891,-0.105469 -0.2677,-0.08203 -0.27429,-0.05859 -0.27869,-0.03515 -0.28088,-0.01172 -0.28088,0.01172 -0.27869,0.03515 -0.27429,0.05859 -0.2677,0.08203 -0.25891,0.105467 -0.24793,0.128908 -0.23474,0.152344 -0.21936,0.175781 -0.20178,0.199221 -0.18201,0.222654 -0.16004,0.246094 -0.13586,0.269531 -0.10949,0.292964 -0.0809,0.31641 -0.0502,0.33984 -0.0172,0.363285 0.0172,0.363281 0.0502,0.339844 0.081,0.316399 0.10948,0.292975 0.13586,0.269527 0.16004,0.246098 0.18201,0.222656 0.20178,0.199219 0.21936,0.175779 0.23474,0.152346 0.24793,0.128906 0.25891,0.105469 0.2677,0.08203 0.27429,0.05859 0.27869,0.03515 0.28088,0.01172 0.28088,-0.01172 0.27869,-0.03515 0.27429,-0.05859 0.2677,-0.08203 0.25891,-0.105467 0.24793,-0.128908 0.23474,-0.152344 0.21936,-0.175781 0.20178,-0.199217 0.18201,-0.222658 0.16004,-0.246094 0.13586,-0.269531 0.10949,-0.292964 0.0809,-0.31641 0.0502,-0.33984 0.0172,-0.363285 z"
       style="fill:none;stroke:#000000;stroke-width:0.01;stroke-miterlimit:4;stroke-dasharray:none"
       id="path858" />
    <g
       id="g862"
       style="stroke-width:0.0377953;stroke-miterlimit:4;stroke-dasharray:none"
       transform="matrix(0.26458333,0,0,0.26458333,141.40332,-232.51786)" />
  </g>
</svg>
